<svg xmlns="http://www.w3.org/2000/svg" xmlns:xlink="http://www.w3.org/1999/xlink" width="96" height="96" viewBox="0 0 96 96"><defs><clipPath id="a"><rect width="96" height="96" transform="translate(1668 772)" fill="#e6e6e6"/></clipPath></defs><g transform="translate(-1668 -772)" clip-path="url(#a)"><g transform="translate(128.001 28.77)"><path d="M49.03,71.736,30.85,107.9l-22.16-.014,3.693-7.315L39.153,47.5S47.7,64.106,49.145,66.883c1.4,2.663,1.074,2.434-.115,4.853Z" transform="translate(1534.31 713.73)" fill="#b01116" fill-rule="evenodd"/><path d="M68.995,71.736,50.814,107.9l-22.174-.014,3.693-7.315L59.1,47.5s8.546,16.606,9.992,19.383c1.4,2.663,1.074,2.434-.1,4.853Z" transform="translate(1542.918 713.73)" fill="#b01116" fill-rule="evenodd"/><path d="M63.77,67.62l-6.356,12.6L52.69,89.58l4.839,9.634,9.477-.014H79.7l-2.119-4.194L76.01,91.87Z" transform="translate(1553.297 722.412)" fill="#343a40" fill-rule="evenodd"/></g></g></svg>